<svg xmlns="http://www.w3.org/2000/svg" viewBox="0 0 455.73 455.73">
  <defs>
    <style>
      .cls-1 {
        fill: #313436;
      }
    </style>
  </defs>
  <path id="instagram_1_" data-name="instagram (1)" class="cls-1" d="M227.86,182.55a45.32,45.32,0,1,0,45.32,45.31A45.375,45.375,0,0,0,227.86,182.55Zm0,0a45.32,45.32,0,1,0,45.32,45.31A45.375,45.375,0,0,0,227.86,182.55Zm75.5-73.89H152.37a43.762,43.762,0,0,0-43.71,43.71V303.36a43.762,43.762,0,0,0,43.71,43.71H303.36a43.762,43.762,0,0,0,43.71-43.71V152.37A43.762,43.762,0,0,0,303.36,108.66Zm-75.5,197.69a78.485,78.485,0,1,1,78.49-78.49A78.576,78.576,0,0,1,227.86,306.35Zm81.01-140.74a18.57,18.57,0,1,1,18.57-18.57A18.59,18.59,0,0,1,308.87,165.61Zm-81.01,16.94a45.32,45.32,0,1,0,45.32,45.31A45.375,45.375,0,0,0,227.86,182.55Zm75.5-73.89H152.37a43.762,43.762,0,0,0-43.71,43.71V303.36a43.762,43.762,0,0,0,43.71,43.71H303.36a43.762,43.762,0,0,0,43.71-43.71V152.37A43.762,43.762,0,0,0,303.36,108.66Zm-75.5,197.69a78.485,78.485,0,1,1,78.49-78.49A78.576,78.576,0,0,1,227.86,306.35Zm81.01-140.74a18.57,18.57,0,1,1,18.57-18.57A18.59,18.59,0,0,1,308.87,165.61Zm-81.01,16.94a45.32,45.32,0,1,0,45.32,45.31A45.375,45.375,0,0,0,227.86,182.55ZM0,0V455.73H455.73V0ZM380.23,303.36a76.952,76.952,0,0,1-76.87,76.87H152.37A76.952,76.952,0,0,1,75.5,303.36V152.37A76.952,76.952,0,0,1,152.37,75.5H303.36a76.952,76.952,0,0,1,76.87,76.87V303.36Zm-76.87-194.7H152.37a43.762,43.762,0,0,0-43.71,43.71V303.36a43.762,43.762,0,0,0,43.71,43.71H303.36a43.762,43.762,0,0,0,43.71-43.71V152.37A43.762,43.762,0,0,0,303.36,108.66Zm-75.5,197.69a78.485,78.485,0,1,1,78.49-78.49A78.576,78.576,0,0,1,227.86,306.35Zm81.01-140.74a18.57,18.57,0,1,1,18.57-18.57A18.59,18.59,0,0,1,308.87,165.61Zm-81.01,16.94a45.32,45.32,0,1,0,45.32,45.31A45.375,45.375,0,0,0,227.86,182.55Zm0,0a45.32,45.32,0,1,0,45.32,45.31A45.375,45.375,0,0,0,227.86,182.55Zm0,0a45.32,45.32,0,1,0,45.32,45.31A45.375,45.375,0,0,0,227.86,182.55Zm75.5-73.89H152.37a43.762,43.762,0,0,0-43.71,43.71V303.36a43.762,43.762,0,0,0,43.71,43.71H303.36a43.762,43.762,0,0,0,43.71-43.71V152.37A43.762,43.762,0,0,0,303.36,108.66Zm-75.5,197.69a78.485,78.485,0,1,1,78.49-78.49A78.576,78.576,0,0,1,227.86,306.35Zm81.01-140.74a18.57,18.57,0,1,1,18.57-18.57A18.59,18.59,0,0,1,308.87,165.61Zm-81.01,16.94a45.32,45.32,0,1,0,45.32,45.31A45.375,45.375,0,0,0,227.86,182.55Zm0,0a45.32,45.32,0,1,0,45.32,45.31A45.375,45.375,0,0,0,227.86,182.55Zm0,0a45.32,45.32,0,1,0,45.32,45.31A45.375,45.375,0,0,0,227.86,182.55Zm75.5-73.89H152.37a43.762,43.762,0,0,0-43.71,43.71V303.36a43.762,43.762,0,0,0,43.71,43.71H303.36a43.762,43.762,0,0,0,43.71-43.71V152.37A43.762,43.762,0,0,0,303.36,108.66Zm-75.5,197.69a78.485,78.485,0,1,1,78.49-78.49A78.576,78.576,0,0,1,227.86,306.35Zm81.01-140.74a18.57,18.57,0,1,1,18.57-18.57A18.59,18.59,0,0,1,308.87,165.61Zm-81.01,16.94a45.32,45.32,0,1,0,45.32,45.31A45.375,45.375,0,0,0,227.86,182.55Z"/>
</svg>
